<svg width="219" height="179" viewBox="0 0 219 179" fill="none" xmlns="http://www.w3.org/2000/svg">
<path d="M171.432 76.2L163.232 115.3L111.032 149.2L74.1322 125.3C62.6322 129.3 51.8322 132.3 42.0322 134.2L110.932 178.9L185.332 130.6L201.932 52.2C193.532 60.1 183.132 68.2 171.432 76.2Z" fill="url(#paint0_linear_1202_3990)"/>
<path d="M192.732 30.8L189.032 26.7L164.732 0H57.3323L18.1323 43.1L31.9323 108.4L33.0323 113.8L36.3323 129.4C45.7323 127.9 56.5323 125.1 68.2323 121.3L58.8323 115.2L57.4323 108.4L56.2323 103L45.1323 50.5L68.3323 25H153.632L170.732 43.8L174.432 47.9L176.832 50.6L173.032 68.4C185.432 59.6 195.832 50.9 203.432 42.9L192.732 30.8Z" fill="url(#paint1_linear_1202_3990)"/>
<path d="M130.132 94.4999C128.132 95.5999 126.132 96.6 124.032 97.7C112.432 103.6 101.032 108.9 90.0324 113.3L89.4324 112.9L91.5324 95.9L92.3324 89.4999L100.332 24.9L100.632 22.7H121.232L121.532 24.9L127.332 72.1L128.032 77.9999L130.132 94.4999Z" fill="url(#paint2_linear_1202_3990)"/>
<path d="M132.432 112.9L111.032 128.9L95.3323 117.2C105.532 112.9 116.132 108.1 126.632 102.7C128.032 102 129.532 101.2 130.932 100.5L132.432 112.9Z" fill="url(#paint3_linear_1202_3990)"/>
<path d="M203.532 42.8C195.932 50.8 185.532 59.5001 173.132 68.3001C160.732 77.1001 146.132 86.1001 130.232 94.6001C128.232 95.7001 126.232 96.7001 124.132 97.8001C112.532 103.7 101.132 109 90.1323 113.4C82.5323 116.5 75.2323 119.2 68.2323 121.5C56.5323 125.3 45.7323 128.1 36.3323 129.6C17.7323 132.7 4.7323 131 1.0323 123.7C-1.5677 118.6 0.832297 111.2 7.2323 102.7C6.7323 105 6.8323 107.1 7.7323 108.9C10.4323 114.2 19.6323 115.8 33.0323 114C40.0323 113.1 48.3323 111.2 57.3323 108.6C67.8323 105.5 79.4323 101.3 91.6323 96C99.8323 92.5 108.432 88.5001 117.032 84.1001C120.832 82.2001 124.532 80.2 128.132 78.2C146.232 68.2 162.132 57.8001 174.432 48.0001C181.932 42.0001 188.132 36.3001 192.732 31.0001C200.432 22.3001 203.632 14.9001 201.132 10.0001C200.232 8.20006 198.632 6.90006 196.432 6.00006C207.132 5.80006 214.432 8.20005 217.132 13.3C220.532 19.9 215.232 30.5 203.532 42.8Z" fill="#04004C"/>
<defs>
<linearGradient id="paint0_linear_1202_3990" x1="0.06453" y1="89.3149" x2="218.207" y2="89.3149" gradientUnits="userSpaceOnUse">
<stop offset="5.32779e-09" stop-color="#003F00"/>
<stop offset="1" stop-color="#00AF00"/>
</linearGradient>
<linearGradient id="paint1_linear_1202_3990" x1="-0.0198957" y1="89.5168" x2="218.247" y2="89.5168" gradientUnits="userSpaceOnUse">
<stop stop-color="#000045"/>
<stop offset="1" stop-color="#00AFFF"/>
</linearGradient>
<linearGradient id="paint2_linear_1202_3990" x1="0.564394" y1="89.4612" x2="218.333" y2="89.4612" gradientUnits="userSpaceOnUse">
<stop stop-color="#000045"/>
<stop offset="1" stop-color="#00AFFF"/>
</linearGradient>
<linearGradient id="paint3_linear_1202_3990" x1="-0.323986" y1="88.8541" x2="218.174" y2="88.8541" gradientUnits="userSpaceOnUse">
<stop stop-color="#000045"/>
<stop offset="1" stop-color="#00AFFF"/>
</linearGradient>
</defs>
</svg>
