<svg width="216" height="52" viewBox="0 0 216 52" fill="none" xmlns="http://www.w3.org/2000/svg">
<path d="M49.8294 22.1487L47.4459 33.5137L32.2732 43.3672L21.5476 36.4203C18.205 37.583 15.0658 38.455 12.2173 39.0073L32.2441 52L53.8696 37.9609L58.6946 15.1727C56.2531 17.469 53.2301 19.8234 49.8294 22.1487Z" fill="url(#paint0_linear_73_185)"/>
<path d="M56.0205 8.95248L54.9451 7.76076L47.8819 0H16.6645L5.27039 12.5277L9.28157 31.5081L9.60129 33.0777L10.5605 37.6121C13.2927 37.1761 16.4319 36.3622 19.8327 35.2577L17.1005 33.4846L16.6935 31.5081L16.3447 29.9385L13.1183 14.6786L19.8618 7.26663H44.6555L49.6259 12.7311L50.7014 13.9229L51.3989 14.7077L50.2944 19.8815C53.8987 17.3236 56.9216 14.7949 59.1306 12.4695L56.0205 8.95248Z" fill="url(#paint1_linear_73_185)"/>
<path d="M37.8249 27.4679C37.2436 27.7876 36.6623 28.0783 36.0519 28.398C32.6802 30.1129 29.3666 31.6534 26.1693 32.9324L25.9949 32.8161L26.6053 27.8748L26.8378 26.0145L29.1631 7.23757L29.2503 6.5981H35.238L35.3252 7.23757L37.0111 20.957L37.2146 22.6719L37.8249 27.4679Z" fill="url(#paint2_linear_73_185)"/>
<path d="M38.4935 32.8161L32.2733 37.4667L27.7098 34.0659C30.6746 32.8161 33.7557 31.4209 36.8077 29.8513C37.2146 29.6478 37.6506 29.4153 38.0575 29.2118L38.4935 32.8161Z" fill="url(#paint3_linear_73_185)"/>
<path d="M59.1598 12.4405C56.9507 14.7658 53.9278 17.2946 50.3235 19.8524C46.7193 22.4103 42.4756 25.0263 37.854 27.4969C37.2727 27.8167 36.6913 28.1073 36.0809 28.4271C32.7092 30.142 29.3956 31.6825 26.1983 32.9614C23.9893 33.8625 21.8674 34.6473 19.8328 35.3158C16.432 36.4203 13.2928 37.2342 10.5605 37.6702C5.15416 38.5713 1.37551 38.0771 0.300054 35.9553C-0.455676 34.4729 0.24192 32.322 2.10218 29.8513C1.95684 30.5198 1.98591 31.1302 2.24751 31.6534C3.03231 33.194 5.70643 33.659 9.60134 33.1358C11.636 32.8742 14.0485 32.322 16.6645 31.5662C19.7165 30.6652 23.0882 29.4444 26.6343 27.9038C29.0178 26.8865 31.5175 25.7239 34.0172 24.4449C35.1217 23.8927 36.1972 23.3113 37.2436 22.73C42.5046 19.8234 47.1262 16.8004 50.7014 13.9519C52.8814 12.2079 54.6835 10.5511 56.0206 9.01061C58.2587 6.48183 59.1888 4.3309 58.4622 2.90664C58.2006 2.38345 57.7355 2.00558 57.096 1.74398C60.2062 1.68585 62.328 2.38344 63.1128 3.86584C64.1011 5.78423 62.5605 8.86528 59.1598 12.4405Z" fill="#04004C"/>
<path d="M66.7461 32.2638V11.5685H80.233V15.9575H71.513V19.7362H78.8087V23.9508H71.513V27.8748H80.3783V32.2638H66.7461Z" fill="#04004C"/>
<path d="M86.3079 32.2638V11.5685H91.5398L97.0334 19.7362L102.556 11.5685H107.788V32.2638H103.021V18.9514L97.0334 27.7004L91.0166 18.9514V32.2638H86.3079Z" fill="#04004C"/>
<path d="M114.066 32.2638V11.5685H127.553V15.9575H118.833V19.7362H126.129V23.9508H118.833V27.8748H127.699V32.2638H114.066Z" fill="#04004C"/>
<path d="M148.481 14.853C147.813 13.8066 146.912 13.0218 145.749 12.4405C144.586 11.8591 143.249 11.5685 141.767 11.5685H133.628V32.2638H138.395V15.8994H141.534C142.406 15.8994 143.133 16.1319 143.685 16.597C144.237 17.062 144.499 17.6724 144.499 18.3991C144.499 18.8642 144.383 19.3002 144.121 19.678C143.889 20.0559 143.54 20.3756 143.104 20.5791C142.668 20.7826 142.174 20.8988 141.621 20.8988H140.197V24.0089L140.924 25.2879H141.68C143.162 25.2879 144.47 24.9972 145.633 24.4449C145.662 24.4449 145.691 24.4159 145.72 24.4159C146.883 23.8345 147.813 23.0207 148.481 21.9743C149.15 20.9279 149.498 19.7362 149.498 18.3991C149.469 17.062 149.15 15.8703 148.481 14.853Z" fill="#04004C"/>
<path d="M144.877 32.2638L140.197 24.038L143.772 21.393L150.312 32.2638H144.877Z" fill="#04004C"/>
<path d="M153.655 32.2638L161.706 11.5394H166.415L158.684 32.2638H153.655Z" fill="#04004C"/>
<path d="M169.787 32.2638L162.055 11.5394H166.793L174.815 32.2638H169.787Z" fill="#04004C"/>
<path d="M179.292 32.2638V11.5685H184.059V27.9038H192.866V32.2929H179.292V32.2638Z" fill="#04004C"/>
<path d="M197.633 32.2638V11.5685H204.405C206.585 11.5685 208.533 12.0045 210.218 12.9055C211.904 13.8066 213.212 14.9983 214.171 16.5679C215.131 18.1084 215.596 19.9106 215.596 21.9452C215.596 23.9508 215.131 25.7529 214.171 27.2935C213.212 28.863 211.904 30.0838 210.218 30.9558C208.533 31.8278 206.585 32.2929 204.405 32.2929H197.633V32.2638ZM202.399 27.7585H204.405C205.306 27.7585 206.149 27.6132 206.905 27.3225C207.661 27.0318 208.329 26.6249 208.91 26.1017C209.492 25.5785 209.928 24.9681 210.247 24.2415C210.567 23.5148 210.713 22.73 210.713 21.8871C210.713 21.0442 210.567 20.2594 210.247 19.5327C209.928 18.806 209.492 18.1956 208.91 17.6724C208.329 17.1492 207.661 16.7423 206.905 16.4516C206.149 16.161 205.306 16.0156 204.405 16.0156H202.399V27.7585Z" fill="#04004C"/>
<path d="M71.2514 46.7099L69.2167 43.2219H67.8797V46.7099H66.7751V38.1644H69.5365C70.1759 38.1644 70.7282 38.2806 71.1642 38.4841C71.6002 38.7166 71.949 39.0073 72.1525 39.3851C72.385 39.763 72.4722 40.199 72.4722 40.6641C72.4722 41.2454 72.2978 41.7686 71.949 42.2337C71.6002 42.6697 71.1061 42.9894 70.4085 43.1347L72.5594 46.7099H71.2514ZM67.8506 42.3209H69.5074C70.1178 42.3209 70.5538 42.1755 70.8735 41.8849C71.1642 41.5942 71.3386 41.1873 71.3386 40.6931C71.3386 40.199 71.1933 39.7921 70.9026 39.5014C70.6119 39.2107 70.1469 39.0945 69.5365 39.0945H67.8797V42.3209H67.8506Z" fill="#00AF00"/>
<path d="M81.5119 43.7451H76.1346C76.1637 44.4136 76.3962 44.9368 76.8031 45.2856C77.21 45.6635 77.7042 45.8379 78.3146 45.8379C78.8087 45.8379 79.1866 45.7216 79.5354 45.4891C79.8551 45.2566 80.0876 44.9659 80.2039 44.588H81.3956C81.2212 45.2275 80.8434 45.7507 80.3202 46.1576C79.7679 46.5646 79.0994 46.768 78.3146 46.768C77.6751 46.768 77.0938 46.6227 76.5997 46.332C76.1055 46.0414 75.6986 45.6344 75.4079 45.1112C75.1173 44.588 74.9719 43.9776 74.9719 43.2801C74.9719 42.5825 75.1173 41.9721 75.3789 41.4489C75.6695 40.9257 76.0474 40.5187 76.5415 40.2281C77.0356 39.9374 77.617 39.7921 78.2855 39.7921C78.925 39.7921 79.4772 39.9374 79.9714 40.199C80.4655 40.4897 80.8434 40.8675 81.105 41.3326C81.3666 41.8267 81.5119 42.379 81.5119 42.9894C81.57 43.2801 81.541 43.5126 81.5119 43.7451ZM80.1167 41.7395C79.9423 41.4198 79.6807 41.1873 79.361 41.0419C79.0412 40.8966 78.6924 40.8094 78.2855 40.8094C77.7332 40.8094 77.2391 40.9838 76.8322 41.3617C76.4252 41.7105 76.2218 42.2337 76.1637 42.8441H80.4074C80.4074 42.4081 80.3202 42.0593 80.1167 41.7395Z" fill="#00AF00"/>
<path d="M84.2731 41.507C84.5638 40.9838 84.9417 40.5769 85.4358 40.2862C85.9299 39.9955 86.5112 39.8502 87.1216 39.8502C87.9355 39.8502 88.6331 40.0537 89.1563 40.4606C89.6795 40.8675 90.0574 41.4198 90.2318 42.1174H89.04C88.9238 41.7105 88.6912 41.3907 88.3715 41.1582C88.0518 40.9257 87.6158 40.8094 87.1507 40.8094C86.5112 40.8094 85.9881 41.0419 85.6102 41.4779C85.2033 41.9139 85.0289 42.5243 85.0289 43.3382C85.0289 44.152 85.2323 44.7624 85.6102 45.2275C86.0171 45.6635 86.5112 45.896 87.1507 45.896C87.6448 45.896 88.0518 45.7798 88.3715 45.5472C88.6912 45.3147 88.9238 44.995 89.04 44.559H90.2318C90.0574 45.2566 89.6795 45.8088 89.1563 46.2158C88.604 46.6227 87.9355 46.8262 87.1216 46.8262C86.4822 46.8262 85.9299 46.6808 85.4358 46.3902C84.9417 46.0995 84.5638 45.6926 84.2731 45.1694C83.9825 44.6462 83.8662 44.0358 83.8662 43.3382C83.8371 42.6406 83.9825 42.0302 84.2731 41.507Z" fill="#00AF00"/>
<path d="M94.8825 40.1699C95.2604 39.9665 95.6964 39.8502 96.2196 39.8502V41.0129H95.9289C94.6791 41.0129 94.0396 41.6814 94.0396 43.0475V46.7099H92.9351V39.9955H94.0396V41.1001C94.2431 40.6931 94.5337 40.3734 94.8825 40.1699Z" fill="#00AF00"/>
<path d="M104.707 39.9664V46.6808H103.602V45.6926C103.399 46.0414 103.079 46.3029 102.701 46.5064C102.323 46.7099 101.888 46.7971 101.452 46.7971C100.928 46.7971 100.463 46.6808 100.027 46.4774C99.6203 46.2739 99.2715 45.9251 99.039 45.4891C98.8064 45.0531 98.6902 44.5299 98.6902 43.9195V39.9955H99.7947V43.7742C99.7947 44.4427 99.9691 44.9368 100.289 45.3147C100.638 45.6635 101.074 45.8379 101.655 45.8379C102.265 45.8379 102.73 45.6635 103.079 45.2856C103.428 44.9078 103.602 44.3846 103.602 43.687V39.9955H104.707V39.9664Z" fill="#00AF00"/>
<path d="M107.846 38.6585C107.701 38.5131 107.614 38.3387 107.614 38.1062C107.614 37.9027 107.701 37.6993 107.846 37.5539C107.991 37.4086 108.166 37.3214 108.398 37.3214C108.602 37.3214 108.776 37.4086 108.922 37.5539C109.067 37.6993 109.125 37.8737 109.125 38.1062C109.125 38.3097 109.067 38.5131 108.922 38.6585C108.776 38.8038 108.602 38.891 108.398 38.891C108.166 38.891 107.991 38.8038 107.846 38.6585ZM108.922 39.9665V46.6808H107.817V39.9665H108.922Z" fill="#00AF00"/>
<path d="M113.427 40.8966V44.8496C113.427 45.1694 113.485 45.4019 113.63 45.5472C113.776 45.6926 114.008 45.7507 114.357 45.7507H115.171V46.6808H114.154C113.543 46.6808 113.078 46.5355 112.758 46.2448C112.439 45.9542 112.293 45.4891 112.293 44.8206V40.8675H111.421V39.9374H112.293V38.2515H113.398V39.9374H115.142V40.8675H113.427V40.8966Z" fill="#00AF00"/>
<path d="M127.234 40.1699C127.64 40.3734 127.96 40.7222 128.193 41.1582C128.425 41.5942 128.542 42.1174 128.542 42.7278V46.6808H127.437V42.8731C127.437 42.2046 127.263 41.6814 126.943 41.3326C126.623 40.9838 126.158 40.8094 125.606 40.8094C125.024 40.8094 124.559 40.9838 124.211 41.3617C123.862 41.7395 123.687 42.2627 123.687 42.9603V46.6518H122.612V42.8441C122.612 42.1755 122.438 41.6523 122.118 41.3035C121.798 40.9547 121.333 40.7803 120.781 40.7803C120.199 40.7803 119.734 40.9547 119.386 41.3326C119.037 41.7105 118.862 42.2337 118.862 42.9312V46.6227H117.758V39.9083H118.862V40.8675C119.095 40.5187 119.386 40.2571 119.763 40.0537C120.141 39.8793 120.548 39.763 120.984 39.763C121.536 39.763 122.06 39.8793 122.467 40.1409C122.903 40.4025 123.222 40.7803 123.426 41.2454C123.6 40.7803 123.92 40.4025 124.356 40.1409C124.792 39.8793 125.286 39.7339 125.809 39.7339C126.362 39.8502 126.827 39.9665 127.234 40.1699Z" fill="#00AF00"/>
<path d="M137.697 43.7451H132.32C132.349 44.4136 132.582 44.9368 132.989 45.2856C133.396 45.6635 133.89 45.8379 134.5 45.8379C134.994 45.8379 135.372 45.7216 135.721 45.4891C136.041 45.2566 136.273 44.9659 136.389 44.588H137.581C137.407 45.2275 137.029 45.7507 136.506 46.1576C135.953 46.5646 135.285 46.768 134.5 46.768C133.861 46.768 133.279 46.6227 132.785 46.332C132.291 46.0414 131.884 45.6344 131.593 45.1112C131.303 44.588 131.157 43.9776 131.157 43.2801C131.157 42.5825 131.303 41.9721 131.564 41.4489C131.855 40.9257 132.233 40.5187 132.727 40.2281C133.221 39.9374 133.803 39.7921 134.471 39.7921C135.111 39.7921 135.663 39.9374 136.157 40.199C136.651 40.4897 137.029 40.8675 137.29 41.3326C137.552 41.8267 137.697 42.379 137.697 42.9894C137.756 43.2801 137.727 43.5126 137.697 43.7451ZM136.302 41.7395C136.128 41.4198 135.866 41.1873 135.547 41.0419C135.227 40.8966 134.878 40.8094 134.471 40.8094C133.919 40.8094 133.425 40.9838 133.018 41.3617C132.611 41.7105 132.407 42.2337 132.349 42.8441H136.593C136.593 42.4081 136.506 42.0593 136.302 41.7395Z" fill="#00AF00"/>
<path d="M145.691 40.6059C146.185 41.1001 146.446 41.8267 146.446 42.7569V46.7099H145.342V42.9022C145.342 42.2337 145.168 41.7105 144.848 41.3617C144.499 41.0129 144.063 40.8385 143.482 40.8385C142.9 40.8385 142.435 41.0129 142.086 41.3907C141.738 41.7686 141.563 42.2918 141.563 42.9894V46.7099H140.459V39.9955H141.563V40.9547C141.796 40.6059 142.086 40.3443 142.464 40.1699C142.842 39.9955 143.278 39.8793 143.714 39.8793C144.528 39.8502 145.197 40.1118 145.691 40.6059Z" fill="#00AF00"/>
<path d="M150.894 40.8966V44.8496C150.894 45.1694 150.952 45.4019 151.097 45.5472C151.243 45.6926 151.475 45.7507 151.824 45.7507H152.638V46.6808H151.62C151.01 46.6808 150.545 46.5355 150.225 46.2448C149.906 45.9542 149.76 45.4891 149.76 44.8206V40.8675H148.888V39.9374H149.76V38.2515H150.865V39.9374H152.609V40.8675H150.894V40.8966Z" fill="#00AF00"/>
<path d="M160.922 46.4774C160.486 46.2739 160.137 46.0123 159.875 45.6344C159.614 45.2856 159.497 44.8787 159.468 44.4136H160.66C160.689 44.8206 160.863 45.1403 161.154 45.431C161.445 45.6926 161.881 45.8379 162.433 45.8379C162.956 45.8379 163.392 45.6926 163.683 45.431C164.003 45.1694 164.148 44.8206 164.148 44.4136C164.148 44.0939 164.061 43.8323 163.886 43.6288C163.712 43.4254 163.479 43.28 163.218 43.1638C162.956 43.0475 162.578 42.9313 162.113 42.815C161.561 42.6697 161.096 42.5243 160.747 42.379C160.398 42.2337 160.108 42.0011 159.875 41.6814C159.643 41.3617 159.526 40.9547 159.526 40.4025C159.526 39.9374 159.643 39.5305 159.875 39.1526C160.108 38.8038 160.457 38.5131 160.863 38.3097C161.299 38.1062 161.794 38.019 162.346 38.019C163.16 38.019 163.799 38.2225 164.322 38.6294C164.846 39.0363 165.107 39.5595 165.194 40.2281H163.974C163.945 39.9083 163.77 39.6177 163.45 39.3561C163.16 39.0945 162.753 38.9782 162.259 38.9782C161.794 38.9782 161.416 39.0945 161.125 39.327C160.834 39.5595 160.689 39.9083 160.689 40.3443C160.689 40.6641 160.776 40.8966 160.951 41.1001C161.125 41.3035 161.329 41.4489 161.59 41.5361C161.852 41.6523 162.201 41.7686 162.666 41.8849C163.218 42.0302 163.683 42.2046 164.032 42.3499C164.381 42.4952 164.671 42.7278 164.904 43.0475C165.136 43.3672 165.282 43.8032 165.282 44.3264C165.282 44.7334 165.165 45.1403 164.962 45.5182C164.729 45.896 164.41 46.1867 163.974 46.4192C163.538 46.6518 163.043 46.768 162.433 46.768C161.852 46.7971 161.358 46.6808 160.922 46.4774Z" fill="#00AF00"/>
<path d="M169.351 46.3902C168.828 46.0995 168.45 45.6926 168.159 45.1694C167.868 44.6462 167.723 44.0358 167.723 43.3382C167.723 42.6406 167.868 42.0302 168.159 41.507C168.45 40.9838 168.857 40.5769 169.38 40.2862C169.903 39.9955 170.484 39.8502 171.124 39.8502C171.763 39.8502 172.345 39.9955 172.868 40.2862C173.391 40.5769 173.798 40.9838 174.089 41.507C174.379 42.0302 174.525 42.6406 174.525 43.3382C174.525 44.0358 174.379 44.6462 174.06 45.1694C173.74 45.6926 173.333 46.0995 172.81 46.3902C172.287 46.6808 171.705 46.8262 171.066 46.8262C170.455 46.7971 169.874 46.6518 169.351 46.3902ZM172.199 45.5472C172.548 45.3728 172.839 45.0822 173.042 44.7043C173.246 44.3265 173.362 43.8614 173.362 43.3382C173.362 42.7859 173.246 42.3499 173.042 41.9721C172.839 41.5942 172.548 41.3035 172.199 41.1291C171.851 40.9547 171.473 40.8385 171.095 40.8385C170.688 40.8385 170.31 40.9257 169.961 41.1291C169.612 41.3035 169.351 41.5942 169.147 41.9721C168.944 42.3499 168.828 42.815 168.828 43.3382C168.828 43.8905 168.915 44.3555 169.118 44.7334C169.322 45.1112 169.583 45.4019 169.932 45.5763C170.281 45.7507 170.63 45.8379 171.037 45.8379C171.473 45.8379 171.851 45.7216 172.199 45.5472Z" fill="#00AF00"/>
<path d="M178.333 37.6121V46.6808H177.228V37.6121H178.333Z" fill="#00AF00"/>
<path d="M187.43 39.9664V46.6808H186.326V45.6926C186.122 46.0414 185.803 46.3029 185.425 46.5064C185.047 46.7099 184.611 46.7971 184.175 46.7971C183.652 46.7971 183.187 46.6808 182.751 46.4774C182.344 46.2739 181.995 45.9251 181.762 45.4891C181.53 45.0531 181.414 44.5299 181.414 43.9195V39.9955H182.518V43.7742C182.518 44.4427 182.693 44.9368 183.012 45.3147C183.361 45.6635 183.797 45.8379 184.378 45.8379C184.989 45.8379 185.454 45.6635 185.803 45.2856C186.151 44.9078 186.326 44.3846 186.326 43.687V39.9955H187.43V39.9664Z" fill="#00AF00"/>
<path d="M191.906 40.8966V44.8496C191.906 45.1694 191.965 45.4019 192.11 45.5472C192.255 45.6926 192.488 45.7507 192.837 45.7507H193.65V46.6808H192.662C192.052 46.6808 191.587 46.5355 191.267 46.2448C190.947 45.9542 190.802 45.4891 190.802 44.8206V40.8675H189.93V39.9374H190.802V38.2515H191.906V39.9374H193.65V40.8675H191.906V40.8966Z" fill="#00AF00"/>
<path d="M196.266 38.6585C196.121 38.5131 196.034 38.3387 196.034 38.1062C196.034 37.9027 196.121 37.6993 196.266 37.5539C196.412 37.4086 196.586 37.3214 196.819 37.3214C197.022 37.3214 197.197 37.4086 197.342 37.5539C197.487 37.6993 197.545 37.8737 197.545 38.1062C197.545 38.3097 197.487 38.5131 197.342 38.6585C197.197 38.8038 197.022 38.891 196.819 38.891C196.586 38.891 196.412 38.8038 196.266 38.6585ZM197.342 39.9665V46.6808H196.237V39.9665H197.342Z" fill="#00AF00"/>
<path d="M201.702 46.3902C201.179 46.0995 200.801 45.6926 200.51 45.1694C200.22 44.6462 200.074 44.0358 200.074 43.3382C200.074 42.6406 200.22 42.0302 200.51 41.507C200.801 40.9838 201.208 40.5769 201.731 40.2862C202.254 39.9955 202.836 39.8502 203.475 39.8502C204.114 39.8502 204.696 39.9955 205.219 40.2862C205.742 40.5769 206.149 40.9838 206.44 41.507C206.73 42.0302 206.876 42.6406 206.876 43.3382C206.876 44.0358 206.73 44.6462 206.411 45.1694C206.091 45.6926 205.684 46.0995 205.161 46.3902C204.638 46.6808 204.056 46.8262 203.417 46.8262C202.777 46.7971 202.196 46.6518 201.702 46.3902ZM204.521 45.5472C204.87 45.3728 205.161 45.0822 205.364 44.7043C205.568 44.3265 205.684 43.8614 205.684 43.3382C205.684 42.7859 205.568 42.3499 205.364 41.9721C205.161 41.5942 204.87 41.3035 204.521 41.1291C204.173 40.9547 203.795 40.8385 203.417 40.8385C203.01 40.8385 202.632 40.9257 202.283 41.1291C201.934 41.3035 201.673 41.5942 201.469 41.9721C201.266 42.3499 201.15 42.815 201.15 43.3382C201.15 43.8905 201.237 44.3555 201.44 44.7334C201.644 45.1112 201.905 45.4019 202.254 45.5763C202.603 45.7507 202.952 45.8379 203.359 45.8379C203.795 45.8379 204.173 45.7216 204.521 45.5472Z" fill="#00AF00"/>
<path d="M214.811 40.6059C215.305 41.1001 215.567 41.8267 215.567 42.7569V46.7099H214.462V42.9022C214.462 42.2337 214.288 41.7105 213.968 41.3617C213.619 41.0129 213.183 40.8385 212.602 40.8385C212.021 40.8385 211.556 41.0129 211.207 41.3907C210.858 41.7686 210.684 42.2918 210.684 42.9894V46.7099H209.579V39.9955H210.684V40.9547C210.916 40.6059 211.207 40.3443 211.585 40.1699C211.963 39.9955 212.399 39.8793 212.835 39.8793C213.648 39.8502 214.317 40.1118 214.811 40.6059Z" fill="#00AF00"/>
<defs>
<linearGradient id="paint0_linear_73_185" x1="12.231" y1="33.5585" x2="58.7076" y2="33.5585" gradientUnits="userSpaceOnUse">
<stop offset="5.32779e-09" stop-color="#003F00"/>
<stop offset="1" stop-color="#00AF00"/>
</linearGradient>
<linearGradient id="paint1_linear_73_185" x1="5.26547" y1="18.8201" x2="59.1555" y2="18.8201" gradientUnits="userSpaceOnUse">
<stop stop-color="#000045"/>
<stop offset="1" stop-color="#00AFFF"/>
</linearGradient>
<linearGradient id="paint2_linear_73_185" x1="26.0255" y1="19.7669" x2="37.835" y2="19.7669" gradientUnits="userSpaceOnUse">
<stop stop-color="#000045"/>
<stop offset="1" stop-color="#00AFFF"/>
</linearGradient>
<linearGradient id="paint3_linear_73_185" x1="27.6938" y1="33.3118" x2="38.4949" y2="33.3118" gradientUnits="userSpaceOnUse">
<stop stop-color="#000045"/>
<stop offset="1" stop-color="#00AFFF"/>
</linearGradient>
</defs>
</svg>
