<?xml version="1.0" standalone="no"?>
<!DOCTYPE svg PUBLIC "-//W3C//DTD SVG 20010904//EN"
 "http://www.w3.org/TR/2001/REC-SVG-20010904/DTD/svg10.dtd">
<svg version="1.0" xmlns="http://www.w3.org/2000/svg"
 width="876.000000pt" height="876.000000pt" viewBox="0 0 876.000000 876.000000"
 preserveAspectRatio="xMidYMid meet">
<metadata>
Created by potrace 1.14, written by Peter Selinger 2001-2017
</metadata>
<g transform="translate(0.000000,876.000000) scale(0.100000,-0.100000)"
fill="#000000" stroke="none">
<path d="M2215 7873 c-44 -48 -98 -107 -120 -131 -46 -51 -60 -67 -175 -192
-47 -51 -93 -102 -103 -114 -10 -11 -51 -56 -90 -100 -40 -43 -83 -91 -97
-106 -14 -15 -62 -68 -106 -116 -45 -49 -104 -113 -130 -143 -27 -30 -64 -70
-82 -90 -19 -19 -59 -64 -90 -100 -31 -35 -66 -73 -78 -85 -12 -12 -66 -70
-120 -131 -54 -60 -110 -122 -124 -136 -14 -15 -54 -59 -90 -99 -36 -41 -70
-78 -75 -83 -10 -9 14 -161 28 -184 3 -5 8 -27 11 -49 3 -21 15 -82 26 -134
21 -90 25 -111 34 -162 2 -13 9 -41 14 -63 6 -22 13 -53 16 -70 7 -44 23 -121
40 -195 8 -36 17 -78 20 -95 3 -16 8 -41 11 -55 3 -14 10 -45 15 -70 5 -25 12
-56 15 -70 7 -32 25 -117 31 -150 3 -14 7 -33 10 -42 3 -10 7 -28 9 -40 6 -31
13 -69 19 -93 2 -11 11 -54 20 -95 8 -41 18 -86 20 -100 3 -14 12 -55 20 -91
8 -36 17 -77 20 -90 3 -13 10 -49 16 -79 7 -30 16 -73 20 -95 5 -22 11 -53 14
-70 4 -16 11 -50 16 -75 11 -47 18 -78 26 -120 3 -14 16 -77 30 -140 27 -125
73 -348 81 -392 3 -22 0 -28 -14 -29 -10 0 -27 -2 -38 -5 -122 -25 -496 -24
-605 1 -14 3 -36 8 -50 11 -85 16 -176 61 -234 114 -79 73 -110 170 -92 295
l4 29 -24 -29 c-40 -48 -41 -50 -54 -76 -7 -13 -16 -26 -20 -29 -4 -3 -23 -36
-44 -73 -20 -37 -45 -83 -56 -102 -11 -19 -17 -35 -13 -35 4 0 2 -5 -5 -12 -7
-7 -12 -20 -12 -30 0 -10 -4 -18 -8 -18 -5 0 -9 -6 -10 -12 -1 -19 -10 -57
-16 -66 -23 -38 -29 -205 -10 -278 19 -74 75 -156 138 -204 54 -41 170 -100
197 -100 9 0 19 -3 23 -7 7 -7 10 -8 61 -18 17 -3 41 -8 55 -11 64 -15 193
-25 320 -24 52 0 103 0 113 0 9 0 23 0 30 -1 14 -1 127 9 202 17 28 3 68 7 90
10 22 2 51 6 65 8 14 2 48 7 75 11 28 3 57 8 65 10 8 3 33 7 55 11 33 5 115
20 265 50 14 3 52 12 85 20 33 8 74 17 90 20 17 3 62 15 102 25 40 11 81 22
93 24 29 7 48 12 108 30 28 8 76 22 105 30 51 15 82 24 102 28 6 2 16 6 23 10
6 5 12 6 12 2 0 -3 9 -1 21 5 11 7 31 14 44 16 32 6 577 190 630 213 11 5 36
15 55 21 19 7 49 19 65 25 17 7 57 23 90 35 33 13 79 31 102 42 23 10 44 18
48 18 22 0 629 264 843 366 73 35 136 64 140 65 4 1 37 17 74 36 36 18 71 33
77 33 6 0 11 4 11 9 0 5 10 12 23 16 30 10 112 50 245 119 34 18 62 31 62 28
0 -3 8 1 18 10 9 8 40 26 67 39 75 38 197 105 435 236 25 14 100 57 168 97 68
39 147 84 175 100 29 16 54 32 57 36 3 4 15 10 28 14 12 4 22 12 22 17 0 5 4
9 9 9 12 0 95 49 174 102 31 22 57 36 57 31 0 -4 4 -3 8 2 7 11 260 175 268
175 3 0 12 6 19 13 30 26 44 37 50 37 3 0 51 32 107 70 57 39 144 98 193 132
74 50 342 245 380 275 6 5 41 33 80 63 82 65 80 63 170 136 80 64 161 133 220
185 22 19 57 51 79 70 140 124 271 255 436 435 51 55 177 209 200 244 8 12 20
28 25 34 44 48 200 323 209 368 2 7 6 20 9 28 35 92 52 230 35 303 -17 79 -57
145 -123 208 -59 57 -233 133 -327 144 -14 2 -30 5 -35 8 -11 7 -96 17 -189
22 -43 3 -91 6 -106 8 -29 4 -62 -11 -41 -19 32 -13 96 -68 123 -106 77 -106
75 -255 -6 -436 -13 -28 -25 -55 -26 -60 -3 -7 -80 -128 -95 -148 -4 -5 -12
-17 -18 -26 -20 -34 -150 -197 -157 -198 -8 0 -48 40 -101 101 -22 24 -62 69
-90 99 -29 31 -85 93 -126 138 -41 46 -90 100 -110 121 -20 21 -65 71 -100
111 -36 39 -78 86 -95 104 -17 18 -60 65 -96 105 -36 40 -78 87 -95 105 -67
72 -209 228 -227 249 -11 12 -35 39 -54 60 l-35 37 -2147 0 -2148 0 -79 -87z
m3965 -952 c19 -20 71 -77 115 -125 44 -49 89 -98 100 -110 11 -12 56 -62 100
-111 44 -48 85 -93 91 -99 5 -6 57 -63 114 -126 57 -63 120 -133 141 -155 105
-114 128 -141 129 -152 0 -6 -74 -67 -164 -135 -229 -172 -239 -179 -441 -315
-71 -49 -134 -92 -140 -96 -19 -15 -237 -157 -242 -157 -2 0 -31 -18 -63 -40
-32 -22 -63 -40 -69 -40 -5 0 -11 -4 -13 -9 -1 -4 -22 -19 -45 -32 -23 -13
-111 -65 -195 -115 -84 -50 -169 -99 -188 -110 -19 -10 -37 -22 -40 -25 -3 -3
-18 -12 -35 -20 -52 -26 -149 -81 -177 -101 -32 -22 -38 -15 -44 50 -2 26 -6
63 -9 82 -3 19 -7 58 -10 85 -10 89 -15 126 -20 156 -3 17 -7 53 -10 82 -2 29
-7 63 -9 76 -3 14 -8 50 -11 80 -2 31 -6 65 -9 76 -2 11 -7 51 -11 89 -4 38
-9 79 -10 90 -2 12 -6 46 -10 76 -5 52 -8 73 -19 158 -3 20 -8 62 -12 92 -3
30 -8 66 -10 80 -1 14 -5 48 -8 75 -3 28 -7 64 -10 80 -2 17 -7 57 -11 90 -4
33 -9 71 -11 85 -1 14 -5 50 -9 80 -3 30 -11 89 -17 130 -6 41 -12 95 -14 120
-2 25 -6 59 -9 75 -2 17 -6 47 -8 67 l-4 38 561 2 c308 2 597 2 641 0 78 -3
81 -4 115 -41z m-2165 29 c-3 -5 -8 -31 -10 -57 -3 -26 -8 -64 -11 -83 -3 -19
-7 -55 -9 -80 -3 -25 -7 -61 -11 -81 -3 -20 -7 -56 -9 -80 -2 -24 -6 -57 -9
-74 -5 -32 -21 -157 -30 -240 -3 -27 -8 -61 -10 -75 -3 -14 -7 -52 -11 -85 -3
-33 -8 -73 -10 -90 -3 -16 -7 -50 -10 -75 -2 -25 -6 -54 -8 -65 -3 -11 -8 -54
-12 -95 -4 -41 -9 -84 -11 -95 -2 -11 -6 -40 -9 -65 -8 -77 -17 -154 -20 -170
-3 -15 -12 -87 -19 -150 -3 -19 -7 -55 -11 -80 -6 -49 -12 -99 -20 -175 -3
-27 -7 -61 -10 -75 -3 -14 -8 -51 -10 -84 -2 -32 -7 -66 -9 -75 -3 -9 -8 -45
-11 -81 -4 -36 -9 -74 -11 -85 -2 -11 -6 -49 -9 -85 -4 -36 -8 -72 -10 -80 -2
-8 -7 -42 -11 -75 -3 -33 -8 -68 -9 -77 -4 -18 -17 -139 -19 -173 -1 -14 -19
-29 -56 -47 -57 -28 -414 -172 -625 -251 -118 -45 -534 -186 -564 -192 -9 -2
-17 -4 -18 -4 -2 -1 -6 -1 -10 -2 -5 0 -24 -7 -42 -15 -46 -19 -57 -13 -64 33
-3 21 -8 47 -11 58 -9 38 -57 250 -61 275 -3 14 -7 36 -10 50 -3 14 -8 36 -11
50 -2 14 -8 43 -14 65 -5 22 -12 54 -14 70 -3 17 -7 39 -10 50 -8 34 -67 309
-71 330 -3 18 -70 332 -81 380 -3 11 -7 34 -9 50 -3 17 -7 41 -11 55 -9 40
-25 113 -30 140 -2 14 -7 36 -11 50 -8 32 -55 255 -69 330 -3 13 -12 56 -21
95 -17 76 -32 147 -39 184 -3 13 -6 27 -7 31 -2 7 67 88 150 177 15 16 50 54
77 84 26 30 83 91 125 137 42 46 87 96 101 111 83 92 190 210 311 342 47 52
103 113 124 137 l38 42 644 0 c400 0 642 -4 638 -10z"/>
<path d="M8005 5804 c-33 -30 -77 -70 -99 -87 -21 -18 -46 -39 -55 -48 -9 -8
-43 -37 -76 -65 -33 -27 -62 -51 -65 -54 -12 -13 -164 -134 -275 -218 -66 -51
-127 -98 -136 -107 -9 -8 -21 -15 -27 -15 -7 0 -12 -3 -12 -7 0 -5 -17 -19
-37 -33 -21 -14 -45 -31 -53 -37 -18 -15 -271 -193 -295 -208 -9 -6 -22 -39
-30 -75 -8 -36 -26 -121 -41 -190 -15 -69 -28 -134 -30 -145 -1 -11 -3 -20 -4
-20 -2 0 -4 -11 -14 -65 -4 -19 -9 -44 -11 -55 -2 -11 -6 -30 -9 -42 -4 -13
-8 -33 -12 -45 -3 -13 -6 -32 -8 -43 -3 -22 -19 -107 -21 -115 -8 -27 -56
-249 -69 -320 -3 -14 -8 -36 -11 -50 -3 -14 -7 -36 -10 -50 -3 -14 -7 -34 -9
-45 -5 -23 -44 -207 -50 -239 -18 -86 -14 -83 -283 -251 -68 -43 -270 -176
-280 -184 -7 -6 -15 -11 -19 -11 -4 0 -29 -16 -55 -35 -27 -19 -51 -35 -53
-35 -6 0 -289 -187 -306 -202 -8 -7 -16 -12 -17 -11 -2 2 -62 -36 -135 -83
-73 -48 -167 -108 -208 -135 -41 -27 -80 -53 -87 -59 -7 -5 -16 -10 -21 -10
-5 0 -17 -9 -27 -20 -10 -11 -20 -18 -23 -16 -2 3 -13 -4 -25 -15 -11 -10 -27
-19 -34 -19 -7 0 -13 -4 -13 -10 0 -5 -7 -10 -15 -10 -8 0 -15 -4 -15 -9 0 -5
-9 -13 -20 -16 -11 -3 -26 -12 -32 -19 -7 -6 -42 -30 -78 -51 -36 -22 -71 -46
-78 -52 -7 -7 -17 -13 -22 -13 -5 0 -15 -6 -22 -13 -7 -7 -32 -24 -55 -37 -24
-13 -43 -27 -43 -32 0 -4 -6 -8 -14 -8 -8 0 -21 -6 -28 -13 -7 -6 -32 -24 -55
-39 l-41 -27 -25 19 c-14 11 -28 20 -31 20 -4 0 -19 8 -34 19 -64 44 -212 141
-217 141 -8 0 -100 64 -103 73 -2 4 -8 7 -13 7 -9 0 -179 109 -189 121 -3 3
-17 12 -32 20 -15 8 -169 106 -343 219 -173 113 -323 210 -332 215 -10 6 -20
12 -23 15 -7 7 -63 44 -116 76 -15 9 -47 2 -164 -37 -80 -27 -176 -58 -215
-70 -213 -64 -202 -61 -255 -74 -8 -2 -15 -4 -15 -5 0 -1 -7 -3 -15 -5 -8 -2
-49 -13 -90 -25 -41 -11 -82 -22 -91 -25 -9 -2 -66 -15 -125 -30 -117 -29
-148 -36 -179 -40 -11 -2 -20 -4 -20 -5 0 -2 -20 -6 -62 -13 -17 -3 -39 -10
-50 -15 -17 -10 -17 -11 2 -19 26 -10 109 -66 113 -75 2 -5 8 -8 13 -8 5 0 69
-39 142 -87 72 -49 137 -90 142 -93 6 -3 28 -17 51 -31 22 -15 103 -68 180
-117 76 -50 144 -95 149 -99 6 -4 22 -14 37 -22 16 -8 28 -18 28 -23 0 -4 5
-8 10 -8 12 0 94 -52 98 -62 2 -5 8 -8 13 -8 9 0 98 -57 126 -80 6 -5 27 -18
45 -28 18 -11 83 -52 145 -93 62 -41 161 -105 220 -144 59 -38 154 -100 211
-137 57 -37 105 -68 108 -68 3 0 10 -5 17 -10 7 -6 62 -43 122 -82 61 -39 146
-94 190 -123 174 -114 282 -182 313 -200 17 -11 32 -23 32 -27 0 -4 4 -8 10
-8 9 0 149 -88 178 -113 32 -26 56 -18 150 50 13 9 32 22 42 27 35 20 235 150
240 156 3 4 12 9 20 13 8 3 98 60 198 127 101 66 188 120 193 120 5 0 9 4 9 8
0 4 15 16 33 27 32 18 198 125 227 145 41 29 182 120 186 120 7 0 99 65 102
73 2 4 8 7 14 7 12 0 102 61 106 72 2 4 7 6 12 3 5 -3 14 1 22 8 7 8 34 26 58
42 25 15 108 69 185 119 77 51 201 131 275 179 74 48 140 91 147 97 6 5 42 28
79 50 37 23 79 50 93 60 14 10 76 50 136 89 61 39 117 76 125 81 96 64 293
191 322 208 20 13 39 31 42 40 8 28 28 115 31 142 2 14 15 77 30 140 31 142
37 170 50 238 3 15 8 34 11 42 3 8 7 29 10 45 2 17 13 71 24 120 11 50 22 101
24 115 2 14 10 48 16 75 7 28 14 64 17 80 2 17 9 48 15 70 5 22 12 51 14 65 3
14 14 68 25 120 11 52 23 106 25 120 5 25 52 246 74 345 6 28 13 61 15 75 3
14 10 45 15 70 10 42 13 59 25 120 7 36 12 58 25 115 6 28 14 61 16 75 3 14
14 68 25 120 11 52 23 104 25 115 2 11 7 34 10 50 3 17 14 71 25 120 12 50 23
101 25 115 3 14 7 36 10 50 3 14 7 36 10 50 3 14 19 91 37 173 19 81 31 147
28 147 -3 0 -33 -25 -66 -56z"/>
<path d="M5015 3827 c-254 -129 -480 -237 -495 -237 -5 0 -10 -4 -10 -10 0 -5
-4 -10 -9 -10 -5 0 -26 -8 -47 -17 -22 -9 -41 -17 -44 -18 -3 -1 -45 -20 -93
-43 -49 -23 -91 -42 -93 -42 -2 0 -27 -11 -56 -24 -151 -68 -309 -136 -317
-136 -5 0 -14 -6 -20 -14 -9 -11 -6 -17 16 -31 39 -26 415 -307 431 -322 7 -7
17 -13 22 -13 5 0 17 -8 27 -18 10 -10 41 -34 68 -54 37 -27 53 -33 61 -24 18
17 46 39 79 60 17 11 35 24 41 30 7 6 22 19 35 28 45 32 254 188 279 207 14
11 86 65 160 119 74 55 145 109 158 121 12 11 27 21 32 21 6 0 10 5 10 10 0 6
7 10 15 10 23 0 34 32 26 76 -4 22 -7 50 -6 62 1 12 -2 22 -7 22 -5 0 -7 4 -4
9 4 5 1 44 -4 88 -15 106 -19 139 -25 203 -4 30 -7 56 -8 56 -1 1 -101 -48
-222 -109z"/>
</g>
</svg>
